<svg width="68" height="68" viewBox="0 0 68 68" fill="none" xmlns="http://www.w3.org/2000/svg">
<path d="M43.0659 11.8624C49.0085 12.7705 58.8271 23.7014 59.6447 50.0313C40.8916 59.5537 32.5202 59.0927 18.5385 55.6984C23.9982 41.5903 20.4984 33.3309 9 18.3177C20.7368 13.0445 29.8889 9.21074 43.0659 11.8624Z" fill="#FFF4CA"/>
<path d="M19.7876 25.4949C35.6279 17.6904 43.3589 18.5132 47.2675 20.8087M22.0587 28.982C37.899 21.1775 45.63 22.0002 49.5385 24.2958M23.5349 32.0334C39.3752 24.229 47.1062 25.0517 51.0147 27.3472M25.2381 36.2837C41.0785 28.4793 41.4762 30.3987 45.4506 31.1616" stroke="#704D0E" stroke-opacity="0.81"/>
</svg>
